<svg xmlns="http://www.w3.org/2000/svg" width="20.399" height="20.399" viewBox="0 0 20.399 20.399"><defs><style>.a{fill:#fff;}</style></defs><g transform="translate(0 0)"><g transform="translate(13.3 0)"><path class="a" d="M340.16,0H334.6a.769.769,0,0,0,0,1.538h4.792V6.33a.769.769,0,0,0,1.538,0V.769A.769.769,0,0,0,340.16,0Z" transform="translate(-333.83)"/></g><g transform="translate(7.893 0)"><path class="a" d="M210.39.225a.768.768,0,0,0-1.087,0L198.335,11.193a.769.769,0,1,0,1.087,1.087L210.39,1.312A.768.768,0,0,0,210.39.225Z" transform="translate(-198.11 0)"/></g><g transform="translate(0 2.614)"><path class="a" d="M17.016,72.553a.769.769,0,0,0-.769.769v8.534H1.538V67.146h8.534a.769.769,0,0,0,0-1.538H.769A.769.769,0,0,0,0,66.377V82.624a.769.769,0,0,0,.769.769H17.016a.769.769,0,0,0,.769-.769v-9.3A.769.769,0,0,0,17.016,72.553Z" transform="translate(0 -65.608)"/></g></g></svg>